<svg xmlns="http://www.w3.org/2000/svg" width="47" height="39" viewBox="0 0 47 39"><defs><mask id="mx6ab" width="2" height="2" x="-1" y="-1"><path fill="#fff" d="M2 10h18v18H2z"/><path d="M11 10c4.97 0 9 3.938 9 8.796 0 4.859-4.03 8.797-9 8.797s-9-3.938-9-8.797C2 13.938 6.03 10 11 10z"/></mask><filter id="mx6aa" width="38" height="39" x="-8" y="0" filterUnits="userSpaceOnUse"><feOffset dy="1" in="SourceGraphic" result="FeOffset1105Out"/><feGaussianBlur in="FeOffset1105Out" result="FeGaussianBlur1106Out" stdDeviation="0 0"/></filter><clipPath id="mx6ac"><path fill="#fff" d="M11 10c4.97 0 9 3.938 9 8.796 0 4.859-4.03 8.797-9 8.797s-9-3.938-9-8.797C2 13.938 6.03 10 11 10z"/></clipPath><linearGradient id="mx6ag" x1="10.56" x2="11.44" y1="29" y2="13.17" gradientUnits="userSpaceOnUse"><stop offset="0" stop-opacity=".96"/><stop offset=".5" stop-color="#d0d0d0" stop-opacity=".96"/><stop offset="1" stop-color="#9e9e9e" stop-opacity=".96"/></linearGradient><filter id="mx6ae" width="200%" height="200%" x="-50%" y="-50%"><feGaussianBlur in="SourceGraphic" result="FeGaussianBlur1136Out" stdDeviation="6.5 6.5"/></filter><mask id="mx6af"><path fill="#fff" d="M13.669 14.495c.127.506.14.549.128 1.068-.005.201-.121 1.128-.09 1.412.026.234.086.253.18.446.163.336.108.8.046 1.14-.035.184-.107.448-.217.6-.122.167-.365.168-.472.363-.155.28-.067.673-.165.976-.11.343-.393.367-.414.817l.414.058c.138.29.392.874.651 1.05l.65.175c.761.307 1.606.675 2.368.992.694.289 1.525.391 1.776 1.109 0 .487.046 1.637.033 2.275 0 0 .003 2.024-7.557 2.024-7.56 0-7.557-2.024-7.557-2.024-.013-.638.034-1.788.034-2.275.25-.718 1.081-.82 1.775-1.109.762-.317 1.607-.685 2.367-.992l.65-.175c.26-.176.514-.76.652-1.05l.308-.074c-.07-.383-.31-.413-.41-.684l-.12-1.226c.003.02-.282-.05-.32-.074-.402-.248-.41-1.257-.449-1.676-.017-.191.253-.349.178-.7-.44-2.058.19-3.021 1.188-3.34.693-.277 1.985-.79 3.191-.058l.3.273.484.082c.243.138.398.597.398.597z"/></mask><filter id="mx6ah" width="200%" height="200%" x="-50%" y="-50%"><feGaussianBlur in="SourceGraphic" result="FeGaussianBlur1143Out" stdDeviation="0 0"/></filter><mask id="mx6ai"><path fill="#fff" d="M13.669 14.495c.127.506.14.549.128 1.068-.005.201-.121 1.128-.09 1.412.026.234.086.253.18.446.163.336.108.8.046 1.14-.035.184-.107.448-.217.6-.122.167-.365.168-.472.363-.155.28-.067.673-.165.976-.11.343-.393.367-.414.817l.414.058c.138.29.392.874.651 1.05l.65.175c.761.307 1.606.675 2.368.992.694.289 1.525.391 1.776 1.109 0 .487.046 1.637.033 2.275 0 0 .003 2.024-7.557 2.024-7.56 0-7.557-2.024-7.557-2.024-.013-.638.034-1.788.034-2.275.25-.718 1.081-.82 1.775-1.109.762-.317 1.607-.685 2.367-.992l.65-.175c.26-.176.514-.76.652-1.05l.308-.074c-.07-.383-.31-.413-.41-.684l-.12-1.226c.003.02-.282-.05-.32-.074-.402-.248-.41-1.257-.449-1.676-.017-.191.253-.349.178-.7-.44-2.058.19-3.021 1.188-3.34.693-.277 1.985-.79 3.191-.058l.3.273.484.082c.243.138.398.597.398.597z"/></mask><linearGradient id="mx6al" x1="30.01" x2="29.99" y1="18.01" y2="12.99" gradientUnits="userSpaceOnUse"><stop offset="0" stop-opacity=".96"/><stop offset=".5" stop-color="#d0d0d0" stop-opacity=".96"/><stop offset="1" stop-color="#9e9e9e" stop-opacity=".96"/></linearGradient><filter id="mx6aj" width="200%" height="200%" x="-50%" y="-50%"><feGaussianBlur in="SourceGraphic" result="FeGaussianBlur1170Out" stdDeviation="6.5 6.5"/></filter><mask id="mx6ak"><path fill="#fff" d="M27.136 18.006l-1.146-1.114L30 12.99l1.146 1.114 2.864 2.787-1.146 1.114L30 15.22z"/></mask><filter id="mx6am" width="200%" height="200%" x="-50%" y="-50%"><feGaussianBlur in="SourceGraphic" result="FeGaussianBlur1177Out" stdDeviation="0 0"/></filter><mask id="mx6an"><path fill="#fff" d="M27.136 18.006l-1.146-1.114L30 12.99l1.146 1.114 2.864 2.787-1.146 1.114L30 15.22z"/></mask><linearGradient id="mx6aq" x1="30.01" x2="29.99" y1="26.01" y2="20.99" gradientUnits="userSpaceOnUse"><stop offset="0" stop-opacity=".96"/><stop offset=".5" stop-color="#d0d0d0" stop-opacity=".96"/><stop offset="1" stop-color="#9e9e9e" stop-opacity=".96"/></linearGradient><filter id="mx6ao" width="200%" height="200%" x="-50%" y="-50%"><feGaussianBlur in="SourceGraphic" result="FeGaussianBlur1204Out" stdDeviation="6.5 6.5"/></filter><mask id="mx6ap"><path fill="#fff" d="M30 26.01l-4.01-3.902 1.146-1.114L30 23.78l2.864-2.786 1.146 1.114-3.437 3.345z"/></mask><filter id="mx6ar" width="200%" height="200%" x="-50%" y="-50%"><feGaussianBlur in="SourceGraphic" result="FeGaussianBlur1211Out" stdDeviation="0 0"/></filter><mask id="mx6as"><path fill="#fff" d="M30 26.01l-4.01-3.902 1.146-1.114L30 23.78l2.864-2.786 1.146 1.114-3.437 3.345z"/></mask><clipPath id="mx6ad"><path d="M11 10c4.97 0 9 3.938 9 8.796 0 4.859-4.03 8.797-9 8.797s-9-3.938-9-8.797C2 13.938 6.03 10 11 10z"/></clipPath></defs><g><g><g><g filter="url(#mx6aa)"><path fill="none" d="M11 10c4.97 0 9 3.938 9 8.796 0 4.859-4.03 8.797-9 8.797s-9-3.938-9-8.797C2 13.938 6.03 10 11 10z" mask="url(&quot;#mx6ab&quot;)"/><path fill="#80633b" d="M11 10c4.97 0 9 3.938 9 8.796 0 4.859-4.03 8.797-9 8.797s-9-3.938-9-8.797C2 13.938 6.03 10 11 10z"/></g><path fill="#1c242a" d="M11 10c4.97 0 9 3.938 9 8.796 0 4.859-4.03 8.797-9 8.797s-9-3.938-9-8.797C2 13.938 6.03 10 11 10z"/><path fill="none" stroke="#000" stroke-linecap="round" stroke-linejoin="round" stroke-miterlimit="20" stroke-width="4" d="M11 10c4.97 0 9 3.938 9 8.796 0 4.859-4.03 8.797-9 8.797s-9-3.938-9-8.797C2 13.938 6.03 10 11 10z" clip-path="url(&quot;#mx6ac&quot;)"/></g><g clip-path="url(#mx6ad)"><path fill="#fff" fill-opacity=".24" d="M-10 42V0h42v42zm23.669-27.505s-.155-.459-.398-.597l-.485-.082-.299-.273c-1.206-.732-2.498-.219-3.19.058-.999.319-1.63 1.282-1.19 3.34.076.351-.194.509-.177.7.039.42.047 1.428.45 1.676.037.023.322.093.32.074l.118 1.226c.1.271.341.3.411.684l-.308.074c-.138.29-.392.874-.651 1.05l-.651.175c-.76.307-1.605.675-2.367.992-.694.289-1.525.391-1.775 1.109 0 .487-.047 1.637-.034 2.275 0 0-.002 2.024 7.557 2.024 7.56 0 7.557-2.024 7.557-2.024.013-.638-.033-1.788-.033-2.275-.251-.718-1.082-.82-1.776-1.109-.762-.317-1.607-.685-2.367-.992a458.08 458.08 0 0 0-.65-.175c-.26-.176-.514-.76-.652-1.05l-.414-.058c.02-.45.303-.474.414-.817.098-.303.01-.696.165-.976.107-.195.35-.196.472-.363.11-.152.182-.416.217-.6.062-.34.117-.804-.047-1.14-.093-.193-.153-.212-.179-.446-.031-.284.085-1.211.09-1.412.012-.52 0-.562-.128-1.068z" filter="url(#mx6ae)" mask="url(&quot;#mx6af&quot;)"/><path fill="#bb9c66" d="M13.669 14.495c.127.506.14.549.128 1.068-.005.201-.121 1.128-.09 1.412.026.234.086.253.18.446.163.336.108.8.046 1.14-.035.184-.107.448-.217.6-.122.167-.365.168-.472.363-.155.28-.067.673-.165.976-.11.343-.393.367-.414.817l.414.058c.138.29.392.874.651 1.05l.65.175c.761.307 1.606.675 2.368.992.694.289 1.525.391 1.776 1.109 0 .487.046 1.637.033 2.275 0 0 .003 2.024-7.557 2.024-7.56 0-7.557-2.024-7.557-2.024-.013-.638.034-1.788.034-2.275.25-.718 1.081-.82 1.775-1.109.762-.317 1.607-.685 2.367-.992l.65-.175c.26-.176.514-.76.652-1.05l.308-.074c-.07-.383-.31-.413-.41-.684l-.12-1.226c.003.02-.282-.05-.32-.074-.402-.248-.41-1.257-.449-1.676-.017-.191.253-.349.178-.7-.44-2.058.19-3.021 1.188-3.34.693-.277 1.985-.79 3.191-.058l.3.273.484.082c.243.138.398.597.398.597z"/><path fill="url(#mx6ag)" d="M13.669 14.495c.127.506.14.549.128 1.068-.005.201-.121 1.128-.09 1.412.026.234.086.253.18.446.163.336.108.8.046 1.14-.035.184-.107.448-.217.6-.122.167-.365.168-.472.363-.155.28-.067.673-.165.976-.11.343-.393.367-.414.817l.414.058c.138.29.392.874.651 1.05l.65.175c.761.307 1.606.675 2.368.992.694.289 1.525.391 1.776 1.109 0 .487.046 1.637.033 2.275 0 0 .003 2.024-7.557 2.024-7.56 0-7.557-2.024-7.557-2.024-.013-.638.034-1.788.034-2.275.25-.718 1.081-.82 1.775-1.109.762-.317 1.607-.685 2.367-.992l.65-.175c.26-.176.514-.76.652-1.05l.308-.074c-.07-.383-.31-.413-.41-.684l-.12-1.226c.003.02-.282-.05-.32-.074-.402-.248-.41-1.257-.449-1.676-.017-.191.253-.349.178-.7-.44-2.058.19-3.021 1.188-3.34.693-.277 1.985-.79 3.191-.058l.3.273.484.082c.243.138.398.597.398.597z"/><path fill="#fff" fill-opacity=".24" d="M-10 42V0h42v42zm23.669-27.505s-.155-.459-.398-.597l-.485-.082-.299-.273c-1.206-.732-2.498-.219-3.19.058-.999.319-1.63 1.282-1.19 3.34.076.351-.194.509-.177.7.039.42.047 1.428.45 1.676.037.023.322.093.32.074l.118 1.226c.1.271.341.3.411.684l-.308.074c-.138.29-.392.874-.651 1.05l-.651.175c-.76.307-1.605.675-2.367.992-.694.289-1.525.391-1.775 1.109 0 .487-.047 1.637-.034 2.275 0 0-.002 2.024 7.557 2.024 7.56 0 7.557-2.024 7.557-2.024.013-.638-.033-1.788-.033-2.275-.251-.718-1.082-.82-1.776-1.109-.762-.317-1.607-.685-2.367-.992a458.08 458.08 0 0 0-.65-.175c-.26-.176-.514-.76-.652-1.05l-.414-.058c.02-.45.303-.474.414-.817.098-.303.01-.696.165-.976.107-.195.35-.196.472-.363.11-.152.182-.416.217-.6.062-.34.117-.804-.047-1.14-.093-.193-.153-.212-.179-.446-.031-.284.085-1.211.09-1.412.012-.52 0-.562-.128-1.068z" filter="url(#mx6ae)" mask="url(&quot;#mx6af&quot;)"/><path fill="#fff1d8" fill-opacity=".44" d="M3 30V12h16v18zm10.669-14.505s-.155-.459-.398-.597l-.485-.082-.299-.273c-1.206-.732-2.498-.219-3.19.058-.999.319-1.63 1.282-1.19 3.34.076.351-.194.509-.177.7.039.42.047 1.428.45 1.676.037.023.322.093.32.074l.118 1.226c.1.271.341.3.411.684l-.308.074c-.138.29-.392.874-.651 1.05l-.651.175c-.76.307-1.605.675-2.367.992-.694.289-1.525.391-1.775 1.109 0 .487-.047 1.637-.034 2.275 0 0-.002 2.024 7.557 2.024 7.56 0 7.557-2.024 7.557-2.024.013-.638-.033-1.788-.033-2.275-.251-.718-1.082-.82-1.776-1.109-.762-.317-1.607-.685-2.367-.992a458.08 458.08 0 0 0-.65-.175c-.26-.176-.514-.76-.652-1.05l-.414-.058c.02-.45.303-.474.414-.817.098-.303.01-.696.165-.976.107-.195.35-.196.472-.363.11-.152.182-.416.217-.6.062-.34.117-.804-.047-1.14-.093-.193-.153-.212-.179-.446-.031-.284.085-1.211.09-1.412.012-.52 0-.562-.128-1.068z" filter="url(#mx6ah)" mask="url(&quot;#mx6ai&quot;)"/></g><g><path fill="#fff" fill-opacity=".24" d="M13 31V0h34v31zm17-15.78l2.864 2.786 1.146-1.114-2.864-2.787L30 12.99l-4.01 3.902 1.146 1.114z" filter="url(#mx6aj)" mask="url(&quot;#mx6ak&quot;)"/><path fill="#bb9c66" d="M27.136 18.006l-1.146-1.114L30 12.99l1.146 1.114 2.864 2.787-1.146 1.114L30 15.22z"/><path fill="url(#mx6al)" d="M27.136 18.006l-1.146-1.114L30 12.99l1.146 1.114 2.864 2.787-1.146 1.114L30 15.22z"/><path fill="#fff" fill-opacity=".24" d="M13 31V0h34v31zm17-15.78l2.864 2.786 1.146-1.114-2.864-2.787L30 12.99l-4.01 3.902 1.146 1.114z" filter="url(#mx6aj)" mask="url(&quot;#mx6ak&quot;)"/><path fill="#fff1d8" fill-opacity=".44" d="M26 19v-1.099L27.13 19zm0-7h8v5.882l-2.854-2.777L30 13.99l-4 3.892zm8 7h-1.13L34 17.902zm-4-2.78L32.858 19h-5.716zm2.864 2.786l.007-.006h-.013zm1.146-1.114l-.01-.01v.02zm-8.02 0l.01.01v-.02zm1.146 1.114l.006-.006h-.013z" filter="url(#mx6am)" mask="url(&quot;#mx6an&quot;)"/></g><g><path fill="#fff" fill-opacity=".24" d="M13 39V8h34v31zm17.573-13.548l3.437-3.344-1.146-1.114L30 23.78l-2.864-2.786-1.146 1.114L30 26.01z" filter="url(#mx6ao)" mask="url(&quot;#mx6ap&quot;)"/><path fill="#bb9c66" d="M30 26.01l-4.01-3.902 1.146-1.114L30 23.78l2.864-2.786 1.146 1.114-3.437 3.345z"/><path fill="url(#mx6aq)" d="M30 26.01l-4.01-3.902 1.146-1.114L30 23.78l2.864-2.786 1.146 1.114-3.437 3.345z"/><path fill="#fff" fill-opacity=".24" d="M13 39V8h34v31zm17.573-13.548l3.437-3.344-1.146-1.114L30 23.78l-2.864-2.786-1.146 1.114L30 26.01z" filter="url(#mx6ao)" mask="url(&quot;#mx6ap&quot;)"/><path fill="#fff1d8" fill-opacity=".44" d="M26 27v-3.882L29.99 27zm0-7h8v3.099l-1.136-1.105L30 24.78l-2.864-2.786L26 23.099zm8 7h-3.99l.563-.548L34 23.119zm.01-3.892l-.01-.01v.02zm-8.02 0l.01.01v-.02zM30 27.01l.01-.01h-.02z" filter="url(#mx6ar)" mask="url(&quot;#mx6as&quot;)"/></g></g></g></svg>