<svg xmlns="http://www.w3.org/2000/svg" width="91" height="91"><defs><clipPath id="a"><path fill="#fff" d="M45.879 40.879c.624.624 1.233 1.703 1.49 2.753 1.05.257 2.129.866 2.752 1.49a3 3 0 11-4.242 4.242c-.624-.623-1.165-1.771-1.357-2.885-1.114-.193-2.262-.733-2.886-1.357a3 3 0 014.243-4.243z"/></clipPath></defs><path fill="none" stroke="#fff" stroke-miterlimit="20" stroke-width="4" d="M45.879 40.879c.624.624 1.233 1.703 1.49 2.753 1.05.257 2.129.866 2.752 1.49a3 3 0 11-4.242 4.242c-.624-.623-1.165-1.771-1.357-2.885-1.114-.193-2.262-.733-2.886-1.357a3 3 0 014.243-4.243z" clip-path="url(&quot;#a&quot;)"/><path fill="#bb9c66" d="M45 46c.781.781.246 2.584-.535 3.364a2 2 0 11-2.829-2.828c.781-.781 2.583-1.317 3.364-.536zm3-1l-2-2 7-7 1.39 1.39L56 39l-1 1-1-1-1 1 1 1-1 1-1-1z"/></svg>